<svg xmlns="http://www.w3.org/2000/svg" width="250" height="280" fill="none" viewBox="0 0 250 280"><path fill="#6EE6C7" d="M211.358 266.597H38.6415C25.7024 266.597 15.2223 256.165 15.2223 243.287V-183.287C15.2223 -196.165 25.7024 -206.597 38.6415 -206.597H211.358C224.297 -206.597 234.777 -196.165 234.777 -183.287V243.287C234.777 256.165 224.297 266.597 211.358 266.597Z"/><path fill="#ABC" fill-rule="evenodd" d="M211.358 -220H38.6417C18.2705 -220 1.75644 -203.563 1.75644 -183.287L1.75644 -152.984C0.786385 -152.984 0 -152.197 0 -151.227V-136.092C0 -135.122 0.786385 -134.336 1.75644 -134.336V-116.853C0.786385 -116.853 0 -116.067 0 -115.097V-82.4791C0 -81.5091 0.786385 -80.7227 1.75644 -80.7227V-71.3988C0.786385 -71.3988 0 -70.6124 0 -69.6423V-37.0247C0 -36.0546 0.786385 -35.2683 1.75644 -35.2683L1.75644 243.286C1.75644 263.563 18.2705 280 38.6417 280H211.358C231.729 280 248.243 263.563 248.243 243.286V-183.287C248.243 -203.563 231.729 -220 211.358 -220ZM4.68384 -183.287C4.68384 -201.954 19.8873 -217.086 38.6417 -217.086H211.358C230.113 -217.086 245.316 -201.954 245.316 -183.287V243.286C245.316 261.953 230.113 277.086 211.358 277.086H38.6417C19.8873 277.086 4.68384 261.953 4.68384 243.286V-183.287ZM250 -48.6797V-103.442C250 -104.412 249.214 -105.198 248.244 -105.198V-46.9233C249.214 -46.9233 250 -47.7097 250 -48.6797Z" clip-rule="evenodd"/><path fill="#BDBDBD" fill-rule="evenodd" d="M211.358 -220H38.6417C18.2705 -220 1.75644 -203.563 1.75644 -183.287L1.75644 -152.984C0.786385 -152.984 0 -152.197 0 -151.227V-136.092C0 -135.122 0.786385 -134.336 1.75644 -134.336V-116.853C0.786385 -116.853 0 -116.067 0 -115.097V-82.4791C0 -81.5091 0.786385 -80.7227 1.75644 -80.7227V-71.3988C0.786385 -71.3988 0 -70.6124 0 -69.6423V-37.0247C0 -36.0546 0.786385 -35.2683 1.75644 -35.2683L1.75644 243.286C1.75644 263.563 18.2705 280 38.6417 280H211.358C231.729 280 248.243 263.563 248.243 243.286V-183.287C248.243 -203.563 231.729 -220 211.358 -220ZM4.68384 -183.287C4.68384 -201.954 19.8873 -217.086 38.6417 -217.086H211.358C230.113 -217.086 245.316 -201.954 245.316 -183.287V243.286C245.316 261.953 230.113 277.086 211.358 277.086H38.6417C19.8873 277.086 4.68384 261.953 4.68384 243.286V-183.287ZM250 -48.6797V-103.442C250 -104.412 249.214 -105.198 248.244 -105.198V-46.9233C249.214 -46.9233 250 -47.7097 250 -48.6797Z" clip-rule="evenodd"/><path fill="#000" fill-rule="evenodd" d="M234.777 -183.287C234.777 -196.166 224.297 -206.597 211.358 -206.597H190.574C187.987 -206.597 185.89 -204.51 185.89 -201.935V-201.352C185.89 -194.242 180.152 -188.532 173.009 -188.532H76.9904C69.8476 -188.532 64.1099 -194.242 64.1099 -201.352V-201.935C64.1099 -204.51 62.0129 -206.597 59.426 -206.597H38.6415C25.7024 -206.597 15.2223 -196.166 15.2223 -183.287V243.286C15.2223 256.165 25.7024 266.596 38.6415 266.596H211.358C224.297 266.596 234.777 256.165 234.777 243.286V-183.287ZM38.6415 -217.086H211.358C230.093 -217.086 245.316 -201.935 245.316 -183.287V243.286C245.316 261.934 230.093 277.086 211.358 277.086H38.6415C19.9062 277.086 4.68369 261.934 4.68369 243.286V-183.287C4.68369 -201.935 19.9062 -217.086 38.6415 -217.086Z" clip-rule="evenodd"/></svg>