<svg xmlns="http://www.w3.org/2000/svg" width="18" height="19" fill="none" viewBox="0 0 18 19"><path fill="#3DDC84" d="M5.6 13.2C5.6 13.5575 5.8925 13.85 6.25 13.85H6.9V16.125C6.9 16.6645 7.3355 17.1 7.875 17.1C8.4145 17.1 8.85 16.6645 8.85 16.125V13.85H10.15V16.125C10.15 16.6645 10.5855 17.1 11.125 17.1C11.6645 17.1 12.1 16.6645 12.1 16.125V13.85H12.75C13.1075 13.85 13.4 13.5575 13.4 13.2V6.7H5.6V13.2ZM3.975 6.7C3.4355 6.7 3 7.1355 3 7.675V12.225C3 12.7645 3.4355 13.2 3.975 13.2C4.5145 13.2 4.95 12.7645 4.95 12.225V7.675C4.95 7.1355 4.5145 6.7 3.975 6.7ZM15.025 6.7C14.4855 6.7 14.05 7.1355 14.05 7.675V12.225C14.05 12.7645 14.4855 13.2 15.025 13.2C15.5645 13.2 16 12.7645 16 12.225V7.675C16 7.1355 15.5645 6.7 15.025 6.7ZM11.7945 2.904L12.6395 2.059C12.7695 1.929 12.7695 1.7275 12.6395 1.5975C12.5095 1.4675 12.308 1.4675 12.178 1.5975L11.216 2.5595C10.7025 2.2995 10.1175 2.15 9.5 2.15C8.876 2.15 8.291 2.2995 7.771 2.5595L6.8025 1.5975C6.6725 1.4675 6.471 1.4675 6.341 1.5975C6.211 1.7275 6.211 1.929 6.341 2.059L7.1925 2.9105C6.2305 3.619 5.6 4.7565 5.6 6.05H13.4C13.4 4.7565 12.7695 3.6125 11.7945 2.904ZM8.2 4.75H7.55V4.1H8.2V4.75ZM11.45 4.75H10.8V4.1H11.45V4.75Z"/></svg>