<svg xmlns="http://www.w3.org/2000/svg" width="100" height="200" fill="none" viewBox="0 0 100 200"><path fill="#6EE6C7" d="M84.5433 194.639H15.4566C10.281 194.639 6.08893 190.466 6.08893 185.315V14.6853C6.08893 9.5338 10.281 5.36131 15.4566 5.36131H84.5433C89.7189 5.36131 93.9109 9.5338 93.9109 14.6853V185.315C93.9109 190.466 89.7189 194.639 84.5433 194.639Z"/><path fill="#fff" d="M73.3333 93.5365C73.3333 80.5581 62.8651 70 49.9992 70C37.1333 70 26.6666 80.5581 26.6666 93.5365C26.6666 103.245 32.5281 111.599 40.8656 115.191C41.5498 122.01 39.5821 128.895 39.5629 128.965C39.5027 129.17 39.5257 129.391 39.6269 129.578C39.7281 129.766 39.8991 129.906 40.1024 129.967C40.3057 130.028 40.5245 130.004 40.7108 129.902C40.8971 129.8 41.0356 129.628 41.0958 129.423C41.1805 129.134 43.0347 122.668 42.528 115.815C44.8778 116.62 47.3841 117.075 49.9992 117.075C52.6142 117.075 55.1206 116.62 57.4703 115.815C56.9668 122.67 58.8178 129.136 58.9025 129.423C58.9322 129.524 58.9815 129.619 59.0475 129.701C59.1135 129.783 59.1949 129.852 59.2871 129.902C59.3793 129.953 59.4805 129.984 59.5848 129.995C59.6892 130.006 59.7946 129.996 59.8952 129.966C60.0984 129.905 60.2695 129.766 60.3708 129.578C60.4722 129.39 60.4954 129.17 60.4354 128.965C60.4147 128.895 58.4486 122.022 59.1343 115.191C67.4718 111.599 73.3333 103.247 73.3333 93.5365ZM28.2651 93.5365C28.2651 81.4466 38.0156 71.6124 49.9992 71.6124C61.9843 71.6124 71.7349 81.4482 71.7349 93.5365C71.7349 105.625 61.9843 115.461 49.9992 115.461C38.014 115.461 28.2651 105.625 28.2651 93.5365Z"/><path fill="#000" d="M52.9675 102.66C50.1302 104.711 47.1396 102.734 47.0117 102.647C46.8359 102.528 46.6209 102.484 46.4134 102.525C46.2058 102.566 46.0227 102.688 45.904 102.864C45.8452 102.952 45.804 103.05 45.7827 103.153C45.7615 103.256 45.7607 103.363 45.7803 103.466C45.7999 103.57 45.8395 103.669 45.8969 103.757C45.9544 103.845 46.0284 103.921 46.115 103.98C46.222 104.054 47.9356 105.206 50.167 105.206C51.3227 105.206 52.6158 104.898 53.8978 103.969C53.983 103.907 54.0554 103.829 54.1107 103.739C54.1661 103.65 54.2034 103.55 54.2204 103.445C54.2375 103.341 54.234 103.234 54.2102 103.131C54.1864 103.028 54.1427 102.931 54.0816 102.845C54.0205 102.759 53.9433 102.686 53.8542 102.63C53.7652 102.574 53.6661 102.537 53.5626 102.52C53.4592 102.502 53.3534 102.506 53.2513 102.53C53.1491 102.554 53.0527 102.598 52.9675 102.66ZM47.9947 90.6487C47.9338 90.5624 47.8567 90.4892 47.7676 90.4332C47.6786 90.3771 47.5794 90.3394 47.4759 90.3222C47.3724 90.305 47.2665 90.3085 47.1643 90.3328C47.0621 90.357 46.9657 90.4013 46.8806 90.4632C44.0402 92.5126 41.0511 90.5342 40.9248 90.4503C40.7494 90.3396 40.5383 90.3018 40.3359 90.3448C40.1335 90.3879 39.9555 90.5084 39.8393 90.6811C39.7232 90.8538 39.678 91.0652 39.7132 91.2709C39.7484 91.4765 39.8612 91.6604 40.0281 91.7838C40.1352 91.858 41.8487 93.0076 44.0801 93.0076C45.4226 93.0086 46.7301 92.5758 47.8109 91.7725C47.9829 91.648 48.0988 91.4597 48.1332 91.2489C48.1677 91.0382 48.1179 90.8224 47.9947 90.6487ZM59.0544 90.4616C56.2155 92.5142 53.2248 90.5342 53.0986 90.4503C53.0119 90.3863 52.9134 90.3404 52.8088 90.3156C52.7042 90.2908 52.5958 90.2876 52.4899 90.306C52.3841 90.3244 52.283 90.3642 52.1927 90.4229C52.1024 90.4817 52.0248 90.5582 51.9645 90.6479C51.9042 90.7375 51.8624 90.8386 51.8417 90.9449C51.821 91.0512 51.8217 91.1607 51.8439 91.2667C51.866 91.3727 51.9091 91.4732 51.9706 91.562C52.0321 91.6509 52.1108 91.7263 52.2018 91.7838C52.3073 91.858 54.0225 93.0076 56.2523 93.0076C57.408 93.0076 58.7027 92.6997 59.9847 91.7725C60.0721 91.7117 60.1465 91.634 60.2038 91.5439C60.2611 91.4537 60.3 91.353 60.3182 91.2475C60.3365 91.1421 60.3337 91.034 60.3101 90.9296C60.2865 90.8252 60.2426 90.7266 60.1808 90.6396C60.119 90.5525 60.0407 90.4787 59.9503 90.4226C59.86 90.3664 59.7594 90.3289 59.6546 90.3123C59.5497 90.2958 59.4426 90.3005 59.3396 90.3261C59.2365 90.3517 59.1396 90.3978 59.0544 90.4616Z"/><path fill="#ABC" fill-rule="evenodd" d="M84.5433 0H15.4567C7.30821 0 0.702576 6.57484 0.702576 14.6853L0.702576 26.8065C0.314554 26.8065 0 27.1211 0 27.5091V33.5632C0 33.9512 0.314554 34.2657 0.702576 34.2657V41.2587C0.314554 41.2587 0 41.5733 0 41.9613V55.0084C0 55.3964 0.314554 55.711 0.702576 55.711V59.4406C0.314554 59.4406 0 59.7551 0 60.1431V73.1902C0 73.5782 0.314554 73.8928 0.702576 73.8928L0.702576 185.315C0.702576 193.425 7.30821 200 15.4567 200H84.5433C92.6918 200 99.2974 193.425 99.2974 185.315V14.6853C99.2974 6.57484 92.6918 0 84.5433 0ZM1.87354 14.6853C1.87354 7.21853 7.95491 1.1655 15.4567 1.1655H84.5433C92.0451 1.1655 98.1265 7.21853 98.1265 14.6853V185.315C98.1265 192.781 92.0451 198.835 84.5433 198.835H15.4567C7.95491 198.835 1.87354 192.781 1.87354 185.315V14.6853ZM100 68.5282V46.6233C100 46.2353 99.6855 45.9207 99.2975 45.9207V69.2308C99.6855 69.2308 100 68.9162 100 68.5282Z" clip-rule="evenodd"/><path fill="#BDBDBD" fill-rule="evenodd" d="M84.5433 0H15.4567C7.30821 0 0.702576 6.57484 0.702576 14.6853L0.702576 26.8065C0.314554 26.8065 0 27.1211 0 27.5091V33.5632C0 33.9512 0.314554 34.2657 0.702576 34.2657V41.2587C0.314554 41.2587 0 41.5733 0 41.9613V55.0084C0 55.3964 0.314554 55.711 0.702576 55.711V59.4406C0.314554 59.4406 0 59.7551 0 60.1431V73.1902C0 73.5782 0.314554 73.8928 0.702576 73.8928L0.702576 185.315C0.702576 193.425 7.30821 200 15.4567 200H84.5433C92.6918 200 99.2974 193.425 99.2974 185.315V14.6853C99.2974 6.57484 92.6918 0 84.5433 0ZM1.87354 14.6853C1.87354 7.21853 7.95491 1.1655 15.4567 1.1655H84.5433C92.0451 1.1655 98.1265 7.21853 98.1265 14.6853V185.315C98.1265 192.781 92.0451 198.835 84.5433 198.835H15.4567C7.95491 198.835 1.87354 192.781 1.87354 185.315V14.6853ZM100 68.5282V46.6233C100 46.2353 99.6855 45.9207 99.2975 45.9207V69.2308C99.6855 69.2308 100 68.9162 100 68.5282Z" clip-rule="evenodd"/><path fill="#000" fill-rule="evenodd" d="M93.9109 14.6853C93.9109 9.53379 89.7189 5.36129 84.5433 5.36129H76.2295C75.1947 5.36129 74.3559 6.19619 74.3559 7.22609V7.4592C74.3559 10.303 72.0608 12.5874 69.2037 12.5874H30.7962C27.9391 12.5874 25.644 10.303 25.644 7.4592V7.22609C25.644 6.19619 24.8052 5.36129 23.7704 5.36129H15.4566C10.281 5.36129 6.08893 9.53379 6.08893 14.6853V185.315C6.08893 190.466 10.281 194.639 15.4566 194.639H84.5433C89.7189 194.639 93.9109 190.466 93.9109 185.315V14.6853ZM15.4566 1.16549H84.5433C92.0374 1.16549 98.1264 7.22609 98.1264 14.6853V185.315C98.1264 192.774 92.0374 198.834 84.5433 198.834H15.4566C7.96247 198.834 1.87347 192.774 1.87347 185.315V14.6853C1.87347 7.22609 7.96247 1.16549 15.4566 1.16549Z" clip-rule="evenodd"/><path fill="#252525" d="M62.178 7.45922C62.178 8.36037 61.444 9.09092 60.5386 9.09092C59.6332 9.09092 58.8993 8.36037 58.8993 7.45922C58.8993 6.55806 59.6332 5.82751 60.5386 5.82751C61.444 5.82751 62.178 6.55806 62.178 7.45922Z"/><path fill="#252525" d="M44.7307 6.75992C44.3426 6.75992 44.0281 7.073 44.0281 7.45922C44.0281 7.84543 44.3426 8.15852 44.7307 8.15852H55.0351C55.4231 8.15852 55.7377 7.84543 55.7377 7.45922C55.7377 7.073 55.4231 6.75992 55.0351 6.75992H44.7307Z"/></svg>