<svg xmlns="http://www.w3.org/2000/svg" width="500" height="500" fill="none" viewBox="0 0 500 500"><rect width="500" height="500" fill="#43BEF3"/><path fill="#000" fill-rule="evenodd" d="M344 216.25V118H309.483V251.047L344 216.25ZM344 236L309.483 270.853V285.546L344 251V236ZM344 271L308.739 306.291C307.762 313.611 305.821 320.144 302.918 325.892L344 284.5L343.924 298.743C343.969 297.531 343.994 296.308 344 295.073V284.5V271ZM343.645 303.511L268.131 380.6C289.865 377.426 307.405 369.009 320.75 355.35C334.332 341.556 341.963 324.277 343.645 303.511ZM247.246 381.985L281.784 347.186C276.025 350.12 269.416 352.095 261.959 353.111L233.913 381.182C238.203 381.654 242.648 381.922 247.246 381.985ZM217.045 378.064L241.483 353.605C237.219 353.255 233.205 352.612 229.439 351.676L206.682 374.655C210.004 375.967 213.459 377.104 217.045 378.064ZM193.417 368.055C189.076 365.393 185.022 362.35 181.253 358.927C164.323 343.545 155.738 322.379 155.5 295.431V118H189.48V294.358C189.48 313.198 194.667 327.865 205.039 338.358C208.055 341.374 211.444 343.951 215.205 346.09L193.417 368.055Z" clip-rule="evenodd"/></svg>