<svg xmlns="http://www.w3.org/2000/svg" width="288" height="271" fill="none" viewBox="0 0 288 271"><g filter="url(#filter0_d)"><path fill="url(#paint0_linear)" fill-rule="evenodd" d="M61.4381 32.2485C72.3131 32.0762 85.7892 27.8623 93.0518 35.9586C100.553 44.3209 90.8164 58.1137 94.2382 68.8137C97.6303 79.4211 113.12 84.8772 112.246 95.9795C111.39 106.859 99.2643 112.973 90.2754 119.162C81.5064 125.2 72.0688 131.546 61.4381 130.963C51.0373 130.392 42.2315 123.43 34.8104 116.121C28.2287 109.638 25.9455 100.656 22.1281 92.2436C17.693 82.4696 9.08409 73.596 10.6991 62.9849C12.3822 51.9263 20.9765 42.7446 30.544 36.9489C39.6768 31.4164 50.7616 32.4177 61.4381 32.2485Z" clip-rule="evenodd"/></g><g filter="url(#filter1_d)"><path fill="url(#paint1_linear)" fill-rule="evenodd" d="M159.966 10.3265C185.363 4.09467 212.395 20.8267 230.73 39.4968C247.691 56.7669 253.572 82.1402 254.269 106.353C254.843 126.302 240.459 142.247 234.233 161.205C228.04 180.061 229.948 201.162 217.945 216.957C203.14 236.44 184.369 260.397 159.966 258.936C135.41 257.466 124.631 227.292 106.814 210.304C92.053 196.23 73.0414 186.655 64.6481 168.055C55.6335 148.079 49.6947 124.04 58.9139 104.157C67.9061 84.7638 94.9322 83.5146 110.589 68.977C129.783 51.1547 134.543 16.5647 159.966 10.3265Z" clip-rule="evenodd"/></g><path fill="#6EE6C7" d="M197.179 243.298H110.821C104.351 243.298 99.1111 238.083 99.1111 231.643V18.3567C99.1111 11.9173 104.351 6.70166 110.821 6.70166H197.179C203.649 6.70166 208.889 11.9173 208.889 18.3567V231.643C208.889 238.083 203.649 243.298 197.179 243.298Z"/><path fill="#ABC" fill-rule="evenodd" d="M197.179 0H110.821C100.635 0 92.3782 8.21855 92.3782 18.3566L92.3782 33.5081C91.8932 33.5081 91.5 33.9013 91.5 34.3864V41.9539C91.5 42.439 91.8932 42.8322 92.3782 42.8322V51.5734C91.8932 51.5734 91.5 51.9666 91.5 52.4516V68.7605C91.5 69.2455 91.8932 69.6387 92.3782 69.6387V74.3007C91.8932 74.3007 91.5 74.6939 91.5 75.1789V91.4877C91.5 91.9728 91.8932 92.366 92.3782 92.366L92.3782 231.643C92.3782 241.781 100.635 250 110.821 250H197.179C207.365 250 215.622 241.781 215.622 231.643V18.3566C215.622 8.21855 207.365 0 197.179 0ZM93.8419 18.3566C93.8419 9.02316 101.444 1.45688 110.821 1.45688H197.179C206.556 1.45688 214.158 9.02316 214.158 18.3566V231.643C214.158 240.977 206.556 248.543 197.179 248.543H110.821C101.444 248.543 93.8419 240.977 93.8419 231.643V18.3566ZM216.5 85.6602V58.2791C216.5 57.7941 216.107 57.4009 215.622 57.4009V86.5384C216.107 86.5384 216.5 86.1452 216.5 85.6602Z" clip-rule="evenodd"/><path fill="#BDBDBD" fill-rule="evenodd" d="M197.179 0H110.821C100.635 0 92.3782 8.21855 92.3782 18.3566L92.3782 33.5081C91.8932 33.5081 91.5 33.9013 91.5 34.3864V41.9539C91.5 42.439 91.8932 42.8322 92.3782 42.8322V51.5734C91.8932 51.5734 91.5 51.9666 91.5 52.4516V68.7605C91.5 69.2455 91.8932 69.6387 92.3782 69.6387V74.3007C91.8932 74.3007 91.5 74.6939 91.5 75.1789V91.4877C91.5 91.9728 91.8932 92.366 92.3782 92.366L92.3782 231.643C92.3782 241.781 100.635 250 110.821 250H197.179C207.365 250 215.622 241.781 215.622 231.643V18.3566C215.622 8.21855 207.365 0 197.179 0ZM93.8419 18.3566C93.8419 9.02316 101.444 1.45688 110.821 1.45688H197.179C206.556 1.45688 214.158 9.02316 214.158 18.3566V231.643C214.158 240.977 206.556 248.543 197.179 248.543H110.821C101.444 248.543 93.8419 240.977 93.8419 231.643V18.3566ZM216.5 85.6602V58.2791C216.5 57.7941 216.107 57.4009 215.622 57.4009V86.5384C216.107 86.5384 216.5 86.1452 216.5 85.6602Z" clip-rule="evenodd"/><path fill="#000" fill-rule="evenodd" d="M208.889 18.3566C208.889 11.9172 203.649 6.7016 197.179 6.7016H186.787C185.493 6.7016 184.445 7.74523 184.445 9.03261V9.32398C184.445 12.8788 181.576 15.7342 178.005 15.7342H129.995C126.424 15.7342 123.555 12.8788 123.555 9.32398V9.03261C123.555 7.74523 122.506 6.7016 121.213 6.7016H110.821C104.351 6.7016 99.1112 11.9172 99.1112 18.3566V231.643C99.1112 238.083 104.351 243.298 110.821 243.298H197.179C203.649 243.298 208.889 238.083 208.889 231.643V18.3566ZM110.821 1.45685H197.179C206.547 1.45685 214.158 9.03261 214.158 18.3566V231.643C214.158 240.967 206.547 248.543 197.179 248.543H110.821C101.453 248.543 93.8419 240.967 93.8419 231.643V18.3566C93.8419 9.03261 101.453 1.45685 110.821 1.45685Z" clip-rule="evenodd"/><path fill="#252525" d="M169.222 9.32402C169.222 10.4505 168.305 11.3636 167.173 11.3636C166.042 11.3636 165.124 10.4505 165.124 9.32402C165.124 8.19757 166.042 7.28439 167.173 7.28439C168.305 7.28439 169.222 8.19757 169.222 9.32402Z"/><path fill="#252525" d="M147.413 8.44989C146.928 8.44989 146.535 8.84125 146.535 9.32402C146.535 9.80679 146.928 10.1981 147.413 10.1981H160.294C160.779 10.1981 161.172 9.80679 161.172 9.32402C161.172 8.84125 160.779 8.44989 160.294 8.44989H147.413Z"/><g filter="url(#filter2_d)"><path fill="url(#paint2_linear)" fill-rule="evenodd" d="M241.709 109.029C252.582 109.284 265.129 110.6 271.902 119.111C278.507 127.411 273.76 139.468 274.36 150.059C274.774 157.356 274.964 164.134 274.867 171.442C274.716 182.782 281.632 196.569 273.634 204.609C265.94 212.343 252.066 208.195 241.709 204.772C233.262 201.98 229.983 191.803 222.148 187.59C212.154 182.217 195.966 187.268 190.58 177.281C185.455 167.777 196.972 157.485 200.39 147.243C203.769 137.116 202.632 124.92 210.47 117.671C218.6 110.151 230.636 108.769 241.709 109.029Z" clip-rule="evenodd"/></g><defs><filter id="filter0_d" width="121.781" height="120" x=".5" y="23" color-interpolation-filters="sRGB" filterUnits="userSpaceOnUse"><feFlood flood-opacity="0" result="BackgroundImageFix"/><feColorMatrix in="SourceAlpha" type="matrix" values="0 0 0 0 0 0 0 0 0 0 0 0 0 0 0 0 0 0 127 0"/><feOffset dy="2"/><feGaussianBlur stdDeviation="5"/><feColorMatrix type="matrix" values="0 0 0 0 0 0 0 0 0 0 0 0 0 0 0 0 0 0 0.25 0"/><feBlend in2="BackgroundImageFix" mode="normal" result="effect1_dropShadow"/><feBlend in="SourceGraphic" in2="effect1_dropShadow" mode="normal" result="shape"/></filter><filter id="filter1_d" width="220" height="270" x="44.286" y="1" color-interpolation-filters="sRGB" filterUnits="userSpaceOnUse"><feFlood flood-opacity="0" result="BackgroundImageFix"/><feColorMatrix in="SourceAlpha" type="matrix" values="0 0 0 0 0 0 0 0 0 0 0 0 0 0 0 0 0 0 127 0"/><feOffset dy="2"/><feGaussianBlur stdDeviation="5"/><feColorMatrix type="matrix" values="0 0 0 0 0 0 0 0 0 0 0 0 0 0 0 0 0 0 0.25 0"/><feBlend in2="BackgroundImageFix" mode="normal" result="effect1_dropShadow"/><feBlend in="SourceGraphic" in2="effect1_dropShadow" mode="normal" result="shape"/></filter><filter id="filter2_d" width="108.214" height="120" x="179.286" y="101" color-interpolation-filters="sRGB" filterUnits="userSpaceOnUse"><feFlood flood-opacity="0" result="BackgroundImageFix"/><feColorMatrix in="SourceAlpha" type="matrix" values="0 0 0 0 0 0 0 0 0 0 0 0 0 0 0 0 0 0 127 0"/><feOffset dy="2"/><feGaussianBlur stdDeviation="5"/><feColorMatrix type="matrix" values="0 0 0 0 0 0 0 0 0 0 0 0 0 0 0 0 0 0 0.25 0"/><feBlend in2="BackgroundImageFix" mode="normal" result="effect1_dropShadow"/><feBlend in="SourceGraphic" in2="effect1_dropShadow" mode="normal" result="shape"/></filter><linearGradient id="paint0_linear" x1="95" x2="21" y1="42.5" y2="81" gradientUnits="userSpaceOnUse"><stop stop-color="#AD00FF"/><stop offset="1" stop-color="#FF00E5"/></linearGradient><linearGradient id="paint1_linear" x1="254.5" x2="54.5" y1="9" y2="259" gradientUnits="userSpaceOnUse"><stop stop-color="#FF7A00"/><stop offset="1" stop-color="#FF00B8"/></linearGradient><linearGradient id="paint2_linear" x1="189.5" x2="277.5" y1="109" y2="209" gradientUnits="userSpaceOnUse"><stop stop-color="#3756C4"/><stop offset="1" stop-color="#001769"/></linearGradient></defs></svg>