<svg xmlns="http://www.w3.org/2000/svg" width="250" height="295" fill="none" viewBox="0 0 250 295"><path fill="#6EE6C7" d="M194.086 389.277H55.9132C45.5619 389.277 37.1779 380.932 37.1779 370.629V29.3707C37.1779 19.0676 45.5619 10.7227 55.9132 10.7227H194.086C204.438 10.7227 212.822 19.0676 212.822 29.3707V370.629C212.822 380.932 204.438 389.277 194.086 389.277Z"/><path fill="#ABC" fill-rule="evenodd" d="M194.087 0H55.9133C39.6164 0 26.4051 13.1497 26.4051 29.3706L26.4052 53.613C25.6291 53.613 25 54.2421 25 55.0182V67.1263C25 67.9023 25.6291 68.5314 26.4052 68.5314V82.5174C25.6291 82.5174 25 83.1465 25 83.9225V110.017C25 110.793 25.6291 111.422 26.4052 111.422V118.881C25.6291 118.881 25 119.51 25 120.286V146.38C25 147.156 25.6291 147.785 26.4052 147.785L26.4051 370.629C26.4051 386.85 39.6164 400 55.9133 400H194.087C210.383 400 223.595 386.85 223.595 370.629V29.3706C223.595 13.1497 210.383 0 194.087 0ZM28.747 29.3706C28.747 14.437 40.9098 2.331 55.9133 2.331H194.087C209.09 2.331 221.253 14.437 221.253 29.3706V370.629C221.253 385.563 209.09 397.669 194.087 397.669H55.9133C40.9098 397.669 28.747 385.563 28.747 370.629V29.3706ZM225 137.056V93.2465C225 92.4704 224.371 91.8413 223.595 91.8413V138.461C224.371 138.461 225 137.832 225 137.056Z" clip-rule="evenodd"/><path fill="#BDBDBD" fill-rule="evenodd" d="M194.087 0H55.9133C39.6164 0 26.4051 13.1497 26.4051 29.3706L26.4052 53.613C25.6291 53.613 25 54.2421 25 55.0182V67.1263C25 67.9023 25.6291 68.5314 26.4052 68.5314V82.5174C25.6291 82.5174 25 83.1465 25 83.9225V110.017C25 110.793 25.6291 111.422 26.4052 111.422V118.881C25.6291 118.881 25 119.51 25 120.286V146.38C25 147.156 25.6291 147.785 26.4052 147.785L26.4051 370.629C26.4051 386.85 39.6164 400 55.9133 400H194.087C210.383 400 223.595 386.85 223.595 370.629V29.3706C223.595 13.1497 210.383 0 194.087 0ZM28.747 29.3706C28.747 14.437 40.9098 2.331 55.9133 2.331H194.087C209.09 2.331 221.253 14.437 221.253 29.3706V370.629C221.253 385.563 209.09 397.669 194.087 397.669H55.9133C40.9098 397.669 28.747 385.563 28.747 370.629V29.3706ZM225 137.056V93.2465C225 92.4704 224.371 91.8413 223.595 91.8413V138.461C224.371 138.461 225 137.832 225 137.056Z" clip-rule="evenodd"/><path fill="#000" fill-rule="evenodd" d="M212.822 29.3705C212.822 19.0675 204.438 10.7225 194.086 10.7225H177.459C175.389 10.7225 173.712 12.3923 173.712 14.4521V14.9183C173.712 20.606 169.122 25.1747 163.407 25.1747H86.5924C80.8781 25.1747 76.2879 20.606 76.2879 14.9183V14.4521C76.2879 12.3923 74.6103 10.7225 72.5408 10.7225H55.9132C45.5619 10.7225 37.1779 19.0675 37.1779 29.3705V370.629C37.1779 380.932 45.5619 389.277 55.9132 389.277H194.086C204.438 389.277 212.822 380.932 212.822 370.629V29.3705ZM55.9132 2.33093H194.086C209.075 2.33093 221.253 14.4521 221.253 29.3705V370.629C221.253 385.547 209.075 397.669 194.086 397.669H55.9132C40.9249 397.669 28.7469 385.547 28.7469 370.629V29.3705C28.7469 14.4521 40.9249 2.33093 55.9132 2.33093Z" clip-rule="evenodd"/><path fill="#252525" d="M149.356 14.9184C149.356 16.7207 147.888 18.1818 146.077 18.1818C144.266 18.1818 142.798 16.7207 142.798 14.9184C142.798 13.1161 144.266 11.655 146.077 11.655C147.888 11.655 149.356 13.1161 149.356 14.9184Z"/><path fill="#252525" d="M114.461 13.5198C113.685 13.5198 113.056 14.146 113.056 14.9184C113.056 15.6909 113.685 16.317 114.461 16.317H135.07C135.846 16.317 136.475 15.6909 136.475 14.9184C136.475 14.146 135.846 13.5198 135.07 13.5198H114.461Z"/></svg>