<svg xmlns="http://www.w3.org/2000/svg" width="318" height="290" fill="none" viewBox="0 0 318 290"><g opacity=".5"><path fill="#6EE6C7" d="M169.086 399.277H30.9132C20.5619 399.277 12.1778 390.932 12.1778 380.629V39.3707C12.1778 29.0676 20.5619 20.7227 30.9132 20.7227H169.086C179.438 20.7227 187.822 29.0676 187.822 39.3707V380.629C187.822 390.932 179.438 399.277 169.086 399.277Z"/><path fill="#ABC" fill-rule="evenodd" d="M169.087 10H30.9133C14.6164 10 1.40513 23.1497 1.40513 39.3706L1.40515 63.613C0.629108 63.613 0 64.2421 0 65.0182V77.1263C0 77.9023 0.629108 78.5314 1.40515 78.5314V92.5174C0.629108 92.5174 0 93.1465 0 93.9225V120.017C0 120.793 0.629108 121.422 1.40515 121.422V128.881C0.629108 128.881 0 129.51 0 130.286V156.38C0 157.156 0.629108 157.785 1.40515 157.785L1.40513 380.629C1.40513 396.85 14.6164 410 30.9133 410H169.087C185.383 410 198.595 396.85 198.595 380.629V39.3706C198.595 23.1497 185.383 10 169.087 10ZM3.74705 39.3706C3.74705 24.437 15.9098 12.331 30.9133 12.331H169.087C184.09 12.331 196.253 24.437 196.253 39.3706V380.629C196.253 395.563 184.09 407.669 169.087 407.669H30.9133C15.9098 407.669 3.74705 395.563 3.74705 380.629V39.3706ZM200 147.056V103.246C200 102.47 199.371 101.841 198.595 101.841V148.461C199.371 148.461 200 147.832 200 147.056Z" clip-rule="evenodd"/><path fill="#BDBDBD" fill-rule="evenodd" d="M169.087 10H30.9133C14.6164 10 1.40513 23.1497 1.40513 39.3706L1.40515 63.613C0.629108 63.613 0 64.2421 0 65.0182V77.1263C0 77.9023 0.629108 78.5314 1.40515 78.5314V92.5174C0.629108 92.5174 0 93.1465 0 93.9225V120.017C0 120.793 0.629108 121.422 1.40515 121.422V128.881C0.629108 128.881 0 129.51 0 130.286V156.38C0 157.156 0.629108 157.785 1.40515 157.785L1.40513 380.629C1.40513 396.85 14.6164 410 30.9133 410H169.087C185.383 410 198.595 396.85 198.595 380.629V39.3706C198.595 23.1497 185.383 10 169.087 10ZM3.74705 39.3706C3.74705 24.437 15.9098 12.331 30.9133 12.331H169.087C184.09 12.331 196.253 24.437 196.253 39.3706V380.629C196.253 395.563 184.09 407.669 169.087 407.669H30.9133C15.9098 407.669 3.74705 395.563 3.74705 380.629V39.3706ZM200 147.056V103.246C200 102.47 199.371 101.841 198.595 101.841V148.461C199.371 148.461 200 147.832 200 147.056Z" clip-rule="evenodd"/><path fill="#000" fill-rule="evenodd" d="M187.822 39.3705C187.822 29.0675 179.438 20.7225 169.086 20.7225H152.459C150.389 20.7225 148.712 22.3923 148.712 24.4521V24.9183C148.712 30.606 144.122 35.1747 138.407 35.1747H61.5923C55.878 35.1747 51.2879 30.606 51.2879 24.9183V24.4521C51.2879 22.3923 49.6103 20.7225 47.5408 20.7225H30.9132C20.5619 20.7225 12.1778 29.0675 12.1778 39.3705V380.629C12.1778 390.932 20.5619 399.277 30.9132 399.277H169.086C179.438 399.277 187.822 390.932 187.822 380.629V39.3705ZM30.9132 12.3309H169.086C184.075 12.3309 196.253 24.4521 196.253 39.3705V380.629C196.253 395.547 184.075 407.669 169.086 407.669H30.9132C15.9249 407.669 3.74693 395.547 3.74693 380.629V39.3705C3.74693 24.4521 15.9249 12.3309 30.9132 12.3309Z" clip-rule="evenodd"/><path fill="#252525" d="M124.356 24.9184C124.356 26.7207 122.888 28.1818 121.077 28.1818C119.266 28.1818 117.798 26.7207 117.798 24.9184C117.798 23.1161 119.266 21.655 121.077 21.655C122.888 21.655 124.356 23.1161 124.356 24.9184Z"/><path fill="#252525" d="M89.4613 23.5198C88.6852 23.5198 88.0561 24.146 88.0561 24.9184C88.0561 25.6909 88.6852 26.317 89.4613 26.317H110.07C110.846 26.317 111.475 25.6909 111.475 24.9184C111.475 24.146 110.846 23.5198 110.07 23.5198H89.4613Z"/></g><g filter="url(#filter0_d)"><path fill="#3DDC84" d="M111.864 50.7725H288.136V364.506H111.864V50.7725Z"/><path fill="#000" fill-rule="evenodd" d="M129.449 10C114.289 10 102 22.2978 102 37.4678V382.532C102 397.702 114.289 410 129.449 410H270.551C285.711 410 298 397.702 298 382.532V37.4678C298 22.2978 285.711 10 270.551 10H129.449ZM288.136 50.7725H111.864V364.506H288.136V50.7725Z" clip-rule="evenodd"/><path fill="#252525" d="M192.923 41.7596C192.923 40.1004 194.268 38.7553 195.926 38.7553H204.074C205.732 38.7553 207.077 40.1004 207.077 41.7596C207.077 43.4188 205.732 44.7639 204.074 44.7639H195.926C194.268 44.7639 192.923 43.4188 192.923 41.7596Z"/><path fill="#252525" d="M180.486 25.6652C180.486 24.5985 181.35 23.7338 182.416 23.7338H218.013C219.079 23.7338 219.943 24.5985 219.943 25.6652C219.943 26.7318 219.079 27.5965 218.013 27.5965H182.416C181.35 27.5965 180.486 26.7318 180.486 25.6652Z"/><path fill="#252525" d="M140.171 26.0943C140.171 28.3461 138.346 30.1716 136.096 30.1716C133.846 30.1716 132.022 28.3461 132.022 26.0943C132.022 23.8425 133.846 22.0171 136.096 22.0171C138.346 22.0171 140.171 23.8425 140.171 26.0943Z"/></g><defs><filter id="filter0_d" width="236" height="440" x="82" y="0" color-interpolation-filters="sRGB" filterUnits="userSpaceOnUse"><feFlood flood-opacity="0" result="BackgroundImageFix"/><feColorMatrix in="SourceAlpha" type="matrix" values="0 0 0 0 0 0 0 0 0 0 0 0 0 0 0 0 0 0 127 0"/><feOffset dy="10"/><feGaussianBlur stdDeviation="10"/><feColorMatrix type="matrix" values="0 0 0 0 0 0 0 0 0 0 0 0 0 0 0 0 0 0 0.5 0"/><feBlend in2="BackgroundImageFix" mode="normal" result="effect1_dropShadow"/><feBlend in="SourceGraphic" in2="effect1_dropShadow" mode="normal" result="shape"/></filter></defs></svg>