<svg xmlns="http://www.w3.org/2000/svg" width="18" height="19" fill="none" viewBox="0 0 18 19"><g opacity=".5"><path fill="#000" d="M15.7275 13.5274C15.4941 14.0666 15.2178 14.563 14.8977 15.0193C14.4614 15.6414 14.1042 16.072 13.8289 16.3111C13.4021 16.7036 12.9448 16.9046 12.4551 16.916C12.1036 16.916 11.6797 16.816 11.1862 16.6131C10.6911 16.4111 10.2361 16.3111 9.82007 16.3111C9.38376 16.3111 8.91581 16.4111 8.41528 16.6131C7.914 16.816 7.51016 16.9218 7.20141 16.9322C6.73184 16.9522 6.2638 16.7455 5.79662 16.3111C5.49844 16.051 5.12547 15.6052 4.67868 14.9736C4.1993 14.2991 3.80519 13.517 3.49643 12.6253C3.16576 11.6621 3 10.7295 3 9.82654C3 8.79224 3.22349 7.90017 3.67115 7.15261C4.02296 6.55215 4.491 6.07849 5.07679 5.73077C5.66258 5.38305 6.29553 5.20585 6.97715 5.19451C7.35012 5.19451 7.83921 5.30988 8.44701 5.53661C9.05309 5.76411 9.44225 5.87948 9.61287 5.87948C9.74043 5.87948 10.1727 5.74458 10.9056 5.47564C11.5987 5.22624 12.1836 5.12297 12.6628 5.16365C13.9613 5.26844 14.9368 5.78031 15.5856 6.70248C14.4243 7.40612 13.8498 8.39164 13.8612 9.65592C13.8717 10.6407 14.229 11.4602 14.9311 12.1108C15.2493 12.4128 15.6046 12.6462 16 12.812C15.9142 13.0606 15.8237 13.2988 15.7275 13.5274ZM12.7495 1.80876C12.7495 2.58061 12.4675 3.30129 11.9054 3.96834C11.2271 4.76134 10.4067 5.21957 9.51703 5.14726C9.5057 5.05466 9.49912 4.95721 9.49912 4.8548C9.49912 4.11382 9.82169 3.32082 10.3945 2.67244C10.6805 2.34415 11.0442 2.07119 11.4853 1.85344C11.9254 1.63894 12.3418 1.52031 12.7333 1.5C12.7447 1.60318 12.7495 1.70638 12.7495 1.80875V1.80876Z"/></g></svg>