<svg xmlns="http://www.w3.org/2000/svg" width="20" height="26" fill="none" viewBox="0 0 20 26"><path fill="#fff" d="M20 10.22C20 4.63794 15.5136 0.0968018 9.99966 0.0968018C4.4857 0.0968018 0 4.63794 0 10.22C0 14.3957 2.51207 17.9888 6.08529 19.5339C6.37849 22.4668 5.53519 25.4281 5.52697 25.458C5.50117 25.5461 5.51104 25.6411 5.5544 25.7219C5.59776 25.8028 5.67106 25.8629 5.75818 25.889C5.8453 25.9151 5.9391 25.9051 6.01894 25.8612C6.09878 25.8173 6.15814 25.7431 6.18394 25.6549C6.22024 25.5308 7.0149 22.7498 6.79774 19.8023C7.80476 20.1484 8.87892 20.344 9.99966 20.344C11.1204 20.344 12.1946 20.1484 13.2016 19.8023C12.9858 22.7505 13.7791 25.5315 13.8154 25.6549C13.8281 25.6986 13.8492 25.7392 13.8775 25.7746C13.9058 25.81 13.9407 25.8394 13.9802 25.8611C14.0197 25.8828 14.0631 25.8964 14.1078 25.9011C14.1525 25.9059 14.1977 25.9016 14.2408 25.8886C14.3279 25.8626 14.4012 25.8026 14.4447 25.7218C14.4881 25.6411 14.498 25.5461 14.4723 25.458C14.4634 25.4281 13.6208 22.4717 13.9147 19.5339C17.4879 17.9888 20 14.3964 20 10.22ZM0.685049 10.22C0.685049 5.02006 4.86385 0.790317 9.99966 0.790317C15.1362 0.790317 19.3149 5.02076 19.3149 10.22C19.3149 15.4193 15.1362 19.6498 9.99966 19.6498C4.86316 19.6498 0.685049 15.4193 0.685049 10.22Z"/><path fill="#fff" d="M11.2718 14.1439C10.0558 15.026 8.7741 14.1758 8.7193 14.1383C8.64398 14.0873 8.5518 14.0686 8.46287 14.0861C8.37393 14.1036 8.29546 14.1561 8.24456 14.232C8.21936 14.2695 8.2017 14.3116 8.19261 14.3561C8.18351 14.4005 8.18316 14.4463 8.19155 14.4909C8.19995 14.5354 8.21694 14.5779 8.24155 14.6158C8.26616 14.6537 8.29791 14.6864 8.33498 14.7119C8.38088 14.7438 9.11525 15.2389 10.0716 15.2389C10.5669 15.2389 11.1211 15.1065 11.6705 14.707C11.707 14.6805 11.738 14.647 11.7617 14.6083C11.7855 14.5697 11.8014 14.5267 11.8088 14.4818C11.8161 14.437 11.8146 14.391 11.8044 14.3467C11.7942 14.3024 11.7754 14.2606 11.7493 14.2236C11.7231 14.1867 11.69 14.1553 11.6518 14.1312C11.6136 14.1072 11.5712 14.091 11.5268 14.0836C11.4825 14.0762 11.4372 14.0777 11.3934 14.0881C11.3496 14.0984 11.3083 14.1174 11.2718 14.1439ZM9.1406 8.97788C9.11451 8.9408 9.08143 8.9093 9.04327 8.8852C9.00511 8.8611 8.96262 8.84488 8.91825 8.83746C8.87387 8.83005 8.82849 8.83159 8.7847 8.84201C8.74092 8.85242 8.6996 8.87149 8.66312 8.89813C7.44579 9.77959 6.16475 8.92864 6.11063 8.89258C6.03548 8.84495 5.94501 8.82869 5.85825 8.8472C5.77149 8.86571 5.69521 8.91756 5.64543 8.99184C5.59566 9.06612 5.57627 9.15705 5.59136 9.2455C5.60645 9.33395 5.65482 9.41303 5.72632 9.46612C5.77222 9.49802 6.50659 9.9925 7.46292 9.9925C8.03826 9.99293 8.59862 9.80675 9.06182 9.46126C9.13551 9.40768 9.1852 9.32669 9.19997 9.23607C9.21473 9.14544 9.19338 9.05259 9.1406 8.97788ZM13.8805 8.89744C12.6638 9.78028 11.3821 8.92864 11.328 8.89258C11.2908 8.86502 11.2486 8.84531 11.2038 8.83464C11.159 8.82398 11.1125 8.82257 11.0671 8.8305C11.0217 8.83843 10.9784 8.85553 10.9397 8.8808C10.901 8.90606 10.8678 8.93896 10.8419 8.97753C10.8161 9.01611 10.7982 9.05956 10.7893 9.10529C10.7804 9.15102 10.7807 9.1981 10.7902 9.24371C10.7997 9.28932 10.8182 9.33252 10.8446 9.37073C10.8709 9.40895 10.9046 9.44139 10.9436 9.46612C10.9889 9.49802 11.7239 9.9925 12.6796 9.9925C13.1749 9.9925 13.7297 9.86003 14.2792 9.46126C14.3166 9.43512 14.3485 9.40169 14.3731 9.36292C14.3976 9.32415 14.4143 9.28082 14.4221 9.23546C14.4299 9.1901 14.4287 9.14361 14.4186 9.09871C14.4085 9.05382 14.3897 9.01141 14.3632 8.97397C14.3367 8.93653 14.3031 8.9048 14.2644 8.88063C14.2257 8.85647 14.1826 8.84036 14.1377 8.83323C14.0927 8.82611 14.0468 8.82811 14.0027 8.83914C13.9585 8.85016 13.917 8.86998 13.8805 8.89744Z"/></svg>